<svg xmlns="http://www.w3.org/2000/svg" xmlns:xlink="http://www.w3.org/1999/xlink" width="500" zoomAndPan="magnify" viewBox="0 0 375 374.999991" height="500" preserveAspectRatio="xMidYMid meet" version="1.0"><defs><clipPath id="0d8fa7f1c0"><path d="M 127 228 L 248 228 L 248 375 L 127 375 Z M 127 228 " clip-rule="nonzero"/></clipPath><clipPath id="1046f524ff"><path d="M 84.5 294.046875 L 187.386719 191.164062 L 288.679688 292.457031 L 185.792969 395.339844 Z M 84.5 294.046875 " clip-rule="nonzero"/></clipPath><clipPath id="75af03578a"><path d="M -48.839844 427.390625 L 187.6875 190.863281 L 424.214844 427.390625 L 187.6875 663.917969 Z M -48.839844 427.390625 " clip-rule="nonzero"/></clipPath></defs><path fill="#54be73" d="M 184.238281 368.867188 C 184.238281 368.867188 90.097656 373.953125 63.171875 278.25 L 84.09375 293.570312 C 84.09375 293.570312 57.933594 234.238281 115.988281 163.417969 L 123.722656 198.515625 C 123.722656 198.515625 117.265625 88.332031 239.757812 62.09375 C 239.757812 62.09375 211.042969 116.394531 261.441406 215.203125 C 261.441406 215.203125 262.070312 191.523438 284.398438 184.492188 C 284.398438 184.492188 280.320312 200.820312 294.039062 224.007812 C 312.730469 255.617188 311.28125 295.496094 288.496094 324.300781 C 268.414062 349.679688 234.613281 370.066406 184.238281 368.867188 Z M 184.238281 368.867188 " fill-opacity="1" fill-rule="nonzero"/><path fill="#54be73" d="M 181.625 372.734375 C 174.445312 372.734375 154.648438 371.839844 132.414062 363 C 107.054688 352.921875 73.84375 330.226562 59.496094 279.300781 C 59.058594 277.738281 59.648438 276.058594 61 275.125 C 62.335938 274.191406 64.105469 274.210938 65.421875 275.183594 L 77.023438 283.679688 C 72.128906 262.683594 68.527344 215.28125 113.015625 161 C 113.949219 159.875 115.4375 159.359375 116.847656 159.703125 C 118.273438 160.046875 119.363281 161.171875 119.683594 162.582031 L 121.933594 172.753906 C 123.667969 162.886719 126.773438 151.015625 132.296875 138.574219 C 145.179688 109.667969 174.101562 72.269531 238.957031 58.359375 C 240.40625 58.054688 241.890625 58.605469 242.789062 59.789062 C 243.683594 60.96875 243.816406 62.550781 243.109375 63.867188 C 242.84375 64.363281 217.921875 114.222656 259.972656 203.582031 C 263.175781 194.800781 270.089844 184.988281 283.257812 180.851562 C 284.570312 180.433594 286.019531 180.777344 287.007812 181.710938 C 288.019531 182.660156 288.4375 184.070312 288.09375 185.40625 C 288.058594 185.539062 284.683594 200.707031 297.316406 222.0625 C 317.304688 255.863281 315.015625 296.921875 291.488281 326.664062 C 274.28125 348.40625 241.71875 374.03125 184.292969 372.699219 C 183.914062 372.699219 183 372.734375 181.625 372.734375 Z M 184.257812 365.058594 C 184.292969 365.058594 184.3125 365.058594 184.351562 365.058594 C 238.730469 366.332031 269.386719 342.308594 285.523438 321.921875 C 307.089844 294.675781 309.148438 257.007812 290.761719 225.929688 C 281.617188 210.480469 279.980469 197.808594 280.035156 190.453125 C 265.992188 198.226562 265.289062 214.519531 265.25 215.300781 C 265.195312 217.035156 263.972656 218.519531 262.277344 218.902344 C 260.5625 219.28125 258.847656 218.460938 258.046875 216.917969 C 217.121094 136.707031 227.355469 85.453125 233.46875 67.46875 C 187.761719 78.9375 156.09375 103.898438 139.289062 141.699219 C 126.125 171.34375 127.515625 198.039062 127.535156 198.304688 C 127.648438 200.285156 126.21875 202.019531 124.257812 202.304688 C 122.296875 202.589844 120.449219 201.296875 120.007812 199.351562 L 114.007812 172.125 C 99.128906 191.863281 83.253906 220.652344 82.09375 254.738281 C 81.332031 277.414062 87.523438 291.894531 87.582031 292.046875 C 88.265625 293.628906 87.808594 295.476562 86.476562 296.542969 C 85.121094 297.609375 83.238281 297.667969 81.847656 296.636719 L 70.414062 288.273438 C 82.304688 320.703125 103.964844 343.394531 134.945312 355.796875 C 160.800781 366.144531 183.816406 365.078125 184.046875 365.058594 C 184.105469 365.058594 184.179688 365.058594 184.257812 365.058594 Z M 184.257812 365.058594 " fill-opacity="1" fill-rule="nonzero"/><path fill="#54be73" d="M 164.5 350.863281 C 135.996094 340.480469 101.261719 313.652344 119.09375 240.03125 C 119.667969 237.648438 122.847656 237.136719 124.125 239.230469 C 129.460938 248.089844 140.738281 264.457031 153.789062 269.886719 C 159.144531 272.117188 164.535156 266.78125 162.34375 261.410156 C 152.246094 236.714844 132.144531 168.925781 181.894531 106.449219 C 183.609375 104.296875 187.074219 105.707031 186.753906 108.429688 C 184.027344 131.714844 182.007812 191.84375 228.746094 215.203125 C 280.835938 241.25 280.226562 333.011719 215.238281 352.882812 C 198.621094 357.949219 180.808594 356.808594 164.5 350.863281 Z M 164.5 350.863281 " fill-opacity="1" fill-rule="nonzero"/><path fill="#54be73" d="M 210.605469 336.726562 C 201.480469 349.242188 182.636719 350.15625 173.148438 337.90625 C 166.957031 329.921875 166.023438 317.539062 182.238281 298.808594 C 209.292969 267.5625 189.800781 231.210938 177.300781 213.851562 C 176.40625 212.59375 178.042969 211.109375 179.1875 212.15625 C 201.289062 232.199219 248.65625 284.5 210.605469 336.726562 Z M 210.605469 336.726562 " fill-opacity="1" fill-rule="nonzero"/><g clip-path="url(#0d8fa7f1c0)"><g clip-path="url(#1046f524ff)"><g clip-path="url(#75af03578a)"><path fill="#ffffff" d="M 172.132812 561.429688 L 200.816406 560.25 L 216.164062 584.519531 L 202.84375 609.941406 L 174.175781 611.097656 L 158.808594 586.851562 Z M 180.640625 376.582031 C 184.089844 372.804688 189.953125 372.515625 193.753906 375.984375 C 195.675781 377.738281 196.789062 380.21875 196.789062 382.820312 L 196.769531 500.398438 C 196.730469 505.519531 192.535156 509.628906 187.414062 509.589844 C 182.355469 509.527344 178.265625 505.4375 178.203125 500.378906 L 178.203125 382.820312 C 178.203125 380.507812 179.070312 378.277344 180.640625 376.582031 Z M 146.707031 232.941406 C 122.6875 255.472656 121.46875 293.207031 144 317.226562 C 148.171875 321.644531 152.984375 325.425781 158.292969 328.421875 C 162.980469 331.042969 165.875 336 165.875 341.371094 L 165.875 531.210938 C 165.875 536.167969 163.414062 540.816406 159.285156 543.582031 C 136.03125 559.15625 129.792969 590.632812 145.386719 613.90625 C 160.957031 637.164062 192.453125 643.378906 215.710938 627.808594 C 238.945312 612.214844 245.179688 580.738281 229.609375 557.484375 C 225.933594 551.988281 221.203125 547.261719 215.710938 543.582031 C 211.578125 540.816406 209.121094 536.167969 209.121094 531.210938 L 209.121094 341.371094 C 209.121094 336 212.011719 331.042969 216.699219 328.421875 C 245.429688 312.289062 255.609375 275.921875 239.480469 247.234375 C 235.515625 240.171875 230.167969 233.996094 223.742188 229.101562 C 222.113281 227.839844 219.777344 228.148438 218.539062 229.761719 C 218.042969 230.421875 217.753906 231.207031 217.753906 232.03125 L 217.773438 276.789062 C 217.773438 280.878906 214.449219 284.203125 210.339844 284.222656 L 164.65625 284.222656 C 160.546875 284.203125 157.21875 280.878906 157.21875 276.789062 L 157.242188 232.03125 C 157.21875 229.988281 155.546875 228.316406 153.523438 228.316406 C 152.695312 228.316406 151.890625 228.582031 151.25 229.101562 C 149.660156 230.277344 148.152344 231.578125 146.707031 232.941406 " fill-opacity="1" fill-rule="nonzero"/></g></g></g></svg>