<svg xmlns="http://www.w3.org/2000/svg" xmlns:xlink="http://www.w3.org/1999/xlink" width="36" zoomAndPan="magnify" viewBox="0 0 375 374.999991" height="36" preserveAspectRatio="xMidYMid meet" version="1.0"><defs><g/><clipPath id="7729740777"><path d="M 38 146.046875 L 93 146.046875 L 93 216 L 38 216 Z M 38 146.046875 " clip-rule="nonzero"/></clipPath><clipPath id="930c595770"><path d="M 37 146.046875 L 94 146.046875 L 94 217 L 37 217 Z M 37 146.046875 " clip-rule="nonzero"/></clipPath><clipPath id="14ad1b8c4c"><path d="M 52 184 L 80 184 L 80 222 L 52 222 Z M 52 184 " clip-rule="nonzero"/></clipPath><clipPath id="68d513de49"><path d="M 42.910156 199.03125 L 66.246094 175.695312 L 89.050781 198.5 L 65.714844 221.835938 Z M 42.910156 199.03125 " clip-rule="nonzero"/></clipPath><clipPath id="7a90e997a8"><path d="M 12.992188 228.953125 L 66.023438 175.917969 L 119.058594 228.953125 L 66.023438 281.984375 Z M 12.992188 228.953125 " clip-rule="nonzero"/></clipPath></defs><g clip-path="url(#7729740777)"><path fill="#54be73" d="M 65.289062 215.816406 C 65.289062 215.816406 44.167969 216.957031 38.125 195.484375 L 42.820312 198.921875 C 42.820312 198.921875 36.949219 185.609375 49.976562 169.71875 L 51.710938 177.59375 C 51.710938 177.59375 50.261719 152.871094 77.746094 146.984375 C 77.746094 146.984375 71.304688 159.167969 82.613281 181.335938 C 82.613281 181.335938 82.753906 176.023438 87.761719 174.445312 C 87.761719 174.445312 86.847656 178.109375 89.925781 183.3125 C 94.121094 190.40625 93.796875 199.351562 88.683594 205.816406 C 84.175781 211.511719 76.59375 216.085938 65.289062 215.816406 Z M 65.289062 215.816406 " fill-opacity="1" fill-rule="nonzero"/></g><g clip-path="url(#930c595770)"><path fill="#54be73" d="M 64.703125 216.683594 C 63.09375 216.683594 58.652344 216.484375 53.660156 214.5 C 47.972656 212.238281 40.519531 207.144531 37.300781 195.71875 C 37.203125 195.367188 37.335938 194.992188 37.636719 194.78125 C 37.9375 194.574219 38.335938 194.578125 38.628906 194.796875 L 41.234375 196.703125 C 40.136719 191.992188 39.328125 181.355469 49.308594 169.175781 C 49.519531 168.921875 49.851562 168.808594 50.167969 168.882812 C 50.488281 168.960938 50.734375 169.214844 50.804688 169.53125 L 51.308594 171.8125 C 51.699219 169.597656 52.394531 166.933594 53.636719 164.144531 C 56.527344 157.65625 63.015625 149.265625 77.566406 146.144531 C 77.890625 146.078125 78.226562 146.199219 78.425781 146.464844 C 78.628906 146.730469 78.65625 147.085938 78.5 147.378906 C 78.441406 147.492188 72.847656 158.679688 82.28125 178.730469 C 83 176.757812 84.554688 174.558594 87.507812 173.628906 C 87.800781 173.535156 88.128906 173.613281 88.347656 173.820312 C 88.574219 174.035156 88.667969 174.351562 88.59375 174.652344 C 88.585938 174.679688 87.828125 178.085938 90.660156 182.875 C 95.148438 190.460938 94.632812 199.671875 89.355469 206.347656 C 85.492188 211.222656 78.1875 216.972656 65.300781 216.675781 C 65.21875 216.675781 65.011719 216.683594 64.703125 216.683594 Z M 65.292969 214.960938 C 65.300781 214.960938 65.308594 214.960938 65.316406 214.960938 C 77.515625 215.246094 84.394531 209.855469 88.015625 205.28125 C 92.855469 199.167969 93.316406 190.71875 89.191406 183.746094 C 87.140625 180.277344 86.773438 177.433594 86.785156 175.785156 C 83.632812 177.527344 83.476562 181.183594 83.46875 181.359375 C 83.453125 181.746094 83.179688 182.082031 82.800781 182.167969 C 82.414062 182.253906 82.03125 182.070312 81.851562 181.722656 C 72.667969 163.722656 74.964844 152.222656 76.335938 148.1875 C 66.082031 150.761719 58.976562 156.363281 55.203125 164.84375 C 52.25 171.496094 52.5625 177.484375 52.566406 177.546875 C 52.59375 177.988281 52.273438 178.378906 51.832031 178.441406 C 51.390625 178.507812 50.976562 178.214844 50.878906 177.78125 L 49.53125 171.671875 C 46.191406 176.101562 42.632812 182.558594 42.371094 190.207031 C 42.199219 195.296875 43.589844 198.542969 43.601562 198.578125 C 43.757812 198.933594 43.652344 199.347656 43.355469 199.585938 C 43.050781 199.828125 42.628906 199.839844 42.316406 199.609375 L 39.75 197.734375 C 42.417969 205.007812 47.277344 210.101562 54.230469 212.882812 C 60.03125 215.203125 65.195312 214.964844 65.246094 214.960938 C 65.257812 214.960938 65.277344 214.960938 65.292969 214.960938 Z M 65.292969 214.960938 " fill-opacity="1" fill-rule="nonzero"/></g><path fill="#54be73" d="M 60.859375 211.777344 C 54.464844 209.445312 46.671875 203.425781 50.671875 186.90625 C 50.800781 186.375 51.515625 186.257812 51.800781 186.726562 C 53 188.714844 55.53125 192.386719 58.457031 193.605469 C 59.660156 194.105469 60.871094 192.910156 60.378906 191.703125 C 58.113281 186.164062 53.601562 170.953125 64.765625 156.933594 C 65.148438 156.453125 65.925781 156.769531 65.855469 157.378906 C 65.242188 162.605469 64.789062 176.097656 75.277344 181.335938 C 86.964844 187.179688 86.828125 207.769531 72.246094 212.230469 C 68.515625 213.367188 64.519531 213.109375 60.859375 211.777344 Z M 60.859375 211.777344 " fill-opacity="1" fill-rule="nonzero"/><path fill="#54be73" d="M 71.207031 208.605469 C 69.160156 211.414062 64.929688 211.617188 62.800781 208.867188 C 61.414062 207.078125 61.203125 204.300781 64.839844 200.097656 C 70.910156 193.085938 66.539062 184.929688 63.734375 181.035156 C 63.53125 180.75 63.898438 180.417969 64.15625 180.652344 C 69.117188 185.152344 79.742188 196.886719 71.207031 208.605469 Z M 71.207031 208.605469 " fill-opacity="1" fill-rule="nonzero"/><g clip-path="url(#14ad1b8c4c)"><g clip-path="url(#68d513de49)"><g clip-path="url(#7a90e997a8)"><path fill="#ffffff" d="M 62.574219 259.03125 L 69.011719 258.765625 L 72.457031 264.210938 L 69.46875 269.914062 L 63.035156 270.175781 L 59.585938 264.734375 Z M 64.484375 217.550781 C 65.257812 216.703125 66.574219 216.636719 67.429688 217.417969 C 67.859375 217.8125 68.109375 218.367188 68.109375 218.949219 L 68.105469 245.335938 C 68.09375 246.484375 67.15625 247.40625 66.003906 247.398438 C 64.871094 247.382812 63.953125 246.464844 63.9375 245.328125 L 63.9375 218.949219 C 63.9375 218.429688 64.132812 217.929688 64.484375 217.550781 Z M 56.871094 185.320312 C 51.480469 190.375 51.207031 198.839844 56.261719 204.230469 C 57.199219 205.222656 58.28125 206.070312 59.46875 206.742188 C 60.523438 207.332031 61.171875 208.445312 61.171875 209.648438 L 61.171875 252.25 C 61.171875 253.363281 60.621094 254.402344 59.691406 255.023438 C 54.476562 258.519531 53.074219 265.582031 56.574219 270.804688 C 60.070312 276.023438 67.136719 277.417969 72.355469 273.925781 C 77.566406 270.425781 78.96875 263.363281 75.472656 258.144531 C 74.648438 256.910156 73.585938 255.851562 72.355469 255.023438 C 71.425781 254.402344 70.875 253.363281 70.875 252.25 L 70.875 209.648438 C 70.875 208.445312 71.523438 207.332031 72.578125 206.742188 C 79.023438 203.125 81.308594 194.960938 77.6875 188.527344 C 76.800781 186.941406 75.597656 185.554688 74.15625 184.457031 C 73.792969 184.171875 73.265625 184.242188 72.988281 184.605469 C 72.878906 184.753906 72.8125 184.929688 72.8125 185.113281 L 72.816406 195.15625 C 72.816406 196.074219 72.070312 196.820312 71.148438 196.824219 L 60.898438 196.824219 C 59.976562 196.820312 59.230469 196.074219 59.230469 195.15625 L 59.234375 185.113281 C 59.230469 184.65625 58.855469 184.28125 58.398438 184.28125 C 58.214844 184.28125 58.035156 184.339844 57.890625 184.457031 C 57.535156 184.71875 57.195312 185.011719 56.871094 185.320312 " fill-opacity="1" fill-rule="nonzero"/></g></g></g><g fill="#000000" fill-opacity="1"><g transform="translate(95.118485, 215.497485)"><g><path d="M 42.125 0 L 33 0 L 29.703125 -10.125 L 12.875 -10.125 L 9.578125 0 L 0.65625 0 L 15.828125 -43.90625 L 26.96875 -43.90625 Z M 20.875 -34.75 L 15.21875 -17.421875 L 27.296875 -17.421875 L 21.625 -34.75 Z M 20.875 -34.75 "/></g></g></g><g fill="#000000" fill-opacity="1"><g transform="translate(137.913051, 215.497485)"><g><path d="M 14.390625 -43.90625 L 14.390625 -7.265625 L 34.109375 -7.265625 L 34.109375 0 L 5.703125 0 L 5.703125 -43.90625 Z M 14.390625 -43.90625 "/></g></g></g><g fill="#000000" fill-opacity="1"><g transform="translate(173.470071, 215.497485)"><g><path d="M 14.390625 -43.90625 L 14.390625 -7.265625 L 34.109375 -7.265625 L 34.109375 0 L 5.703125 0 L 5.703125 -43.90625 Z M 14.390625 -43.90625 "/></g></g></g><g fill="#54be73" fill-opacity="1"><g transform="translate(209.04421, 215.497485)"><g><path d="M 22.671875 -43.90625 C 25.816406 -43.90625 28.503906 -43.328125 30.734375 -42.171875 C 32.960938 -41.023438 34.644531 -39.414062 35.78125 -37.34375 C 36.925781 -35.269531 37.5 -32.863281 37.5 -30.125 C 37.5 -27.375 36.925781 -24.96875 35.78125 -22.90625 C 34.644531 -20.84375 32.960938 -19.234375 30.734375 -18.078125 C 28.503906 -16.929688 25.816406 -16.359375 22.671875 -16.359375 L 14.390625 -16.359375 L 14.390625 0 L 5.703125 0 L 5.703125 -43.90625 Z M 21.53125 -23.25 C 26.351562 -23.25 28.765625 -25.539062 28.765625 -30.125 C 28.765625 -34.726562 26.351562 -37.03125 21.53125 -37.03125 L 14.390625 -37.03125 L 14.390625 -23.25 Z M 21.53125 -23.25 "/></g></g></g><g fill="#54be73" fill-opacity="1"><g transform="translate(249.165983, 215.497485)"><g><path d="M 5.703125 0 L 5.703125 -43.90625 L 23.328125 -43.90625 C 27.878906 -43.90625 31.3125 -42.859375 33.625 -40.765625 C 35.9375 -38.671875 37.09375 -35.78125 37.09375 -32.09375 C 37.09375 -29.4375 36.414062 -27.253906 35.0625 -25.546875 C 33.707031 -23.847656 31.691406 -22.550781 29.015625 -21.65625 L 29.015625 -21.015625 C 30.390625 -20.421875 31.503906 -19.53125 32.359375 -18.34375 C 33.210938 -17.164062 34.019531 -15.414062 34.78125 -13.09375 L 39.15625 0 L 30.234375 0 L 25.953125 -13.125 C 25.503906 -14.445312 25.003906 -15.472656 24.453125 -16.203125 C 23.910156 -16.929688 23.210938 -17.457031 22.359375 -17.78125 C 21.503906 -18.113281 20.394531 -18.28125 19.03125 -18.28125 L 14.390625 -18.28125 L 14.390625 0 Z M 22.28125 -25.171875 C 26.488281 -25.171875 28.59375 -27.128906 28.59375 -31.046875 C 28.59375 -35.035156 26.488281 -37.03125 22.28125 -37.03125 L 14.390625 -37.03125 L 14.390625 -25.171875 Z M 22.28125 -25.171875 "/></g></g></g><g fill="#54be73" fill-opacity="1"><g transform="translate(290.218735, 215.497485)"><g><path d="M 23.9375 0.625 C 19.90625 0.625 16.351562 -0.191406 13.28125 -1.828125 C 10.207031 -3.472656 7.800781 -5.984375 6.0625 -9.359375 C 4.320312 -12.734375 3.453125 -16.929688 3.453125 -21.953125 C 3.453125 -26.972656 4.320312 -31.171875 6.0625 -34.546875 C 7.800781 -37.921875 10.207031 -40.425781 13.28125 -42.0625 C 16.351562 -43.707031 19.90625 -44.53125 23.9375 -44.53125 C 27.957031 -44.53125 31.5 -43.710938 34.5625 -42.078125 C 37.625 -40.453125 40.019531 -37.945312 41.75 -34.5625 C 43.488281 -31.175781 44.359375 -26.972656 44.359375 -21.953125 C 44.359375 -16.929688 43.488281 -12.726562 41.75 -9.34375 C 40.019531 -5.957031 37.625 -3.445312 34.5625 -1.8125 C 31.5 -0.1875 27.957031 0.625 23.9375 0.625 Z M 23.9375 -6.90625 C 27.65625 -6.90625 30.492188 -8.097656 32.453125 -10.484375 C 34.421875 -12.878906 35.40625 -16.703125 35.40625 -21.953125 C 35.40625 -27.191406 34.421875 -31.015625 32.453125 -33.421875 C 30.492188 -35.828125 27.65625 -37.03125 23.9375 -37.03125 C 20.1875 -37.03125 17.328125 -35.828125 15.359375 -33.421875 C 13.390625 -31.015625 12.40625 -27.191406 12.40625 -21.953125 C 12.40625 -16.703125 13.390625 -12.878906 15.359375 -10.484375 C 17.328125 -8.097656 20.1875 -6.90625 23.9375 -6.90625 Z M 23.9375 -6.90625 "/></g></g></g></svg>